<?xml version="1.0" encoding="UTF-8" standalone="no"?>
<!-- Created with Inkscape (http://www.inkscape.org/) -->

<svg
   version="1.1"
   id="svg1"
   width="163.84"
   height="160.64"
   viewBox="0 0 163.84 160.64"
   xmlns="http://www.w3.org/2000/svg"
   xmlns:svg="http://www.w3.org/2000/svg">
  <defs
     id="defs1" />
  <g
     id="g1">
    <path
       style="fill:#000000"
       d="m 70.399998,159.72642 c 0,-0.51693 3.443981,-3.53014 5.640981,-4.93541 1.209461,-0.7736 3.423019,-2.00385 4.919019,-2.73387 1.50017,-0.73206 4.06538,-2.40947 5.719951,-3.74032 7.977455,-6.41662 13.932271,-7.95015 23.400051,-6.02613 3.39989,0.69091 3.49252,0.78385 1.97737,1.98387 -1.9404,1.53682 -4.45702,2.55904 -7.94619,3.22763 -5.436246,1.04168 -9.03252,2.60141 -12.591182,5.46087 C 84.849072,158.32329 80.621364,160 73.776829,160 c -1.857257,0 -3.376831,-0.12311 -3.376831,-0.27358 z m -3.174687,-0.8922 c -2.973283,-1.04085 -5.68394,-3.47247 -7.19495,-6.4543 l -0.809677,-1.59782 2.149657,-0.36222 c 1.182312,-0.19922 3.949658,-0.81023 6.149657,-1.3578 4.567903,-1.13692 8.375257,-1.32982 10.24,-0.5188 1.118535,0.48648 2.88,2.03105 2.88,2.52538 0,0.14377 -0.67123,0.55831 -1.491622,0.92121 -2.282625,1.00971 -6.486014,3.93496 -8.256348,5.74582 -0.873384,0.89337 -1.737384,1.61744 -1.92,1.60903 -0.182616,-0.008 -0.968639,-0.23813 -1.746717,-0.5105 z m 27.896715,-3.95894 c -3.037777,-0.44333 -3.397565,-0.58966 -2.910268,-1.18367 0.721138,-0.87906 3.979572,-2.85204 6.135825,-3.71525 1.123951,-0.44995 3.826197,-1.18676 6.004997,-1.63735 5.79662,-1.1988 6.62176,-1.69708 12.76742,-7.70988 2.904,-2.84122 6.5,-6.06758 7.99112,-7.16968 3.18561,-2.35453 7.68888,-4.73653 7.68888,-4.06703 0,0.86012 -1.92275,5.08305 -3.48995,7.66495 -4.2339,6.97523 -10.57628,13.09103 -16.14615,15.56934 -4.87823,2.17056 -12.26665,3.09139 -18.041874,2.24857 z m -14.802028,-5.48019 c -0.616,-0.69324 -1.696,-1.46441 -2.4,-1.71372 -2.179092,-0.77167 -5.982335,-0.59565 -10.25948,0.47482 -6.651533,1.66474 -10.236377,2.05821 -14.89506,1.63486 -4.245044,-0.38576 -7.781095,-1.20522 -9.998182,-2.31702 -3.285917,-1.64779 -9.7899,-7.35459 -10.959369,-9.61609 -0.42436,-0.82062 -0.43334,-0.96082 -0.05217,-0.81456 0.253227,0.0972 2.086238,0.62795 4.073357,1.17949 4.700786,1.30476 5.439903,1.63117 8.012937,3.53863 1.185642,0.87896 2.816113,1.89023 3.623268,2.24727 2.974154,1.31561 7.614289,1.14111 17.494702,-0.65791 4.947418,-0.90082 10.145082,-0.90872 13.599999,-0.0207 2.711831,0.69705 8.023213,3.17055 7.966123,3.70982 -0.04308,0.40697 -4.331179,3.69089 -4.763194,3.64776 -0.177611,-0.0177 -0.826929,-0.59943 -1.442929,-1.29267 z M 125.44,144.22975 c 0,-0.0946 1.01111,-1.51703 2.24692,-3.1609 2.92573,-3.8918 4.67674,-7.3386 6.70618,-13.20081 2.05376,-5.93246 3.79235,-9.43034 5.5717,-11.20968 0.75537,-0.75537 2.7283,-2.28281 4.3843,-3.3943 1.65599,-1.11149 3.8601,-2.82261 4.89802,-3.80248 l 1.88713,-1.78158 -0.19201,1.67968 c -0.27464,2.40251 -1.09158,3.99747 -3.7771,7.37432 -3.05368,3.83978 -4.56626,6.339 -5.43429,8.97905 -0.96147,2.92423 -3.22856,7.73241 -4.94248,10.48227 -1.66197,2.66653 -4.94357,5.86715 -7.1749,6.99785 -1.4665,0.74313 -4.17347,1.41547 -4.17347,1.03658 z M 48.446878,143.4146 c -0.898216,-0.31048 -2.626216,-1.29563 -3.84,-2.18923 -2.991917,-2.20265 -3.477812,-2.42084 -8.751906,-3.92996 -6.075346,-1.73839 -8.293257,-2.64595 -11.434357,-4.6789 -3.328641,-2.15432 -6.052053,-4.88083 -7.38468,-7.39309 -0.574235,-1.08254 -1.701646,-3.88867 -2.505358,-6.23584 C 13.726866,116.64041 12.415221,113.136 11.61581,111.2 10.816399,109.264 9.9655197,106.96 9.7249661,106.08 9.1907577,104.12574 9.188027,99.502259 9.7200521,97.76 l 0.3908669,-1.28 1.672329,2.24 c 2.051547,2.74794 5.683468,10.03554 7.256273,14.56 2.43382,7.00133 5.225896,11.50909 8.640478,13.94991 2.352785,1.68182 3.99573,2.45116 8.8,4.12075 4.74078,1.64753 7.852892,3.20917 11.528752,5.78505 2.489247,1.74436 6.996848,5.62801 7.447149,6.41631 0.397796,0.69638 -4.897171,0.59257 -7.009022,-0.13742 z M 35.397213,130.04472 c -3.91218,-1.33473 -6.946946,-3.03445 -8.893725,-4.98123 C 24.125865,122.68587 21.006493,117.44 21.9703,117.44 c 0.619579,0 10.68202,7.01155 12.087685,8.42274 1.581727,1.58796 3.884617,4.63792 3.652859,4.83787 -0.06096,0.0526 -1.102099,-0.24255 -2.313631,-0.65589 z M 142.15915,127.28 c 0.0812,-0.22 0.39315,-1.14691 0.69324,-2.0598 0.66119,-2.01135 2.38818,-4.73397 5.21147,-8.21593 1.1614,-1.43235 2.48615,-3.39627 2.94389,-4.36427 0.75284,-1.59207 0.82979,-2.11112 0.80646,-5.44 -0.0248,-3.53829 -0.089,-3.87101 -1.66752,-8.64 -3.44757,-10.415856 -3.82205,-17.695071 -1.30876,-25.44 0.51402,-1.584 1.1239,-3.217209 1.35529,-3.629352 l 0.42071,-0.749352 1.36587,1.549352 c 2.47837,2.811297 2.70412,3.540785 2.40775,7.780338 -0.45133,6.456228 -0.29911,7.682554 1.94744,15.689014 1.71839,6.124172 1.94018,7.11919 2.38204,10.68676 0.58042,4.68626 -0.29214,8.74411 -2.68439,12.4838 -1.44056,2.25195 -4.61533,5.6096 -7.03077,7.43576 -3.08656,2.33356 -7.28904,4.12301 -6.84272,2.91368 z m -93.679151,-2.14704 c -0.352,-0.14655 -1.072,-0.72259 -1.6,-1.28007 -0.928932,-0.9808 -0.965178,-1.13449 -1.12,-4.74886 l -0.16,-3.73526 -1.130869,-0.18278 c -1.941639,-0.31381 -1.909131,-0.21359 -1.909131,-5.88569 0,-5.77279 0.01839,-5.82774 2.061831,-6.15934 l 1.158938,-0.18807 -0.09039,-3.396445 L 45.599999,96.16 44.481284,96.053854 C 42.58877,95.874289 42.559999,95.784831 42.559999,90.08 c 0,-5.704832 0.02877,-5.79429 1.921285,-5.973855 L 45.599999,84 l 0.09083,-3.44 0.09083,-3.44 h -1.08123 c -1.954588,0 -2.141055,-0.533087 -2.135522,-6.105197 0.0027,-2.714142 0.131697,-5.135034 0.28667,-5.379759 0.154973,-0.244726 0.836768,-0.534907 1.5151,-0.644846 l 1.23333,-0.199889 0.09083,-3.435155 0.09083,-3.435154 -1.107969,0 c -1.977751,0 -2.113683,-0.391312 -2.113683,-6.084712 0,-4.885734 0.02706,-5.097953 0.711202,-5.577143 0.391161,-0.27398 1.111161,-0.498145 1.6,-0.498145 l 0.888798,0 0.0012,-3.44 c 0.0014,-4.120772 0.472892,-5.199494 2.703743,-6.186306 1.36872,-0.60545 2.30214,-0.620416 33.568083,-0.538231 31.916499,0.0839 32.166909,0.08954 33.043819,0.744309 0.48599,0.362875 1.18051,1.057404 1.54339,1.543398 0.65735,0.880388 0.66008,1.035144 0.74446,42.241024 l 0.0847,41.357396 -0.73267,1.3855 c -1.46849,2.77696 1.31408,2.57558 -35.271719,2.55263 -17.778746,-0.0112 -32.612992,-0.1402 -32.964992,-0.28676 z M 59.519999,80.48 V 39.04 l -4.694803,0 c -5.939273,0 -5.865197,-0.04912 -5.865197,3.889596 V 45.76 h 2.648798 c 4.123484,0 4.071202,-0.07696 4.071202,5.992948 0,6.284693 0.0744,6.167052 -3.900422,6.167052 l -2.84123,0 0.09083,3.44 0.09083,3.44 2.710359,0.09408 c 3.923948,0.136203 3.849641,0.01865 3.849641,6.090321 0,6.248926 0.07204,6.135601 -3.900422,6.135601 h -2.84123 l 0.09083,3.44 0.09083,3.44 2.88,0.08859 c 2.240356,0.06891 2.968839,0.206871 3.28,0.621161 0.578097,0.7697 0.563343,10.436324 -0.01666,10.917687 -0.229165,0.19019 -1.705165,0.387822 -3.28,0.439182 l -2.863336,0.09338 -0.0905,3.407768 -0.0905,3.407772 2.841879,0.11223 c 1.789023,0.0707 3.037722,0.27494 3.370499,0.55141 0.450623,0.37438 0.527897,1.17705 0.52372,5.44 -0.0027,2.75045 -0.141011,5.21682 -0.307369,5.48082 -0.220024,0.34916 -1.112725,0.52361 -3.2751,0.64 l -2.972631,0.16 -0.09289,2.63695 c -0.142686,4.05045 -0.322725,3.92305 5.544151,3.92305 h 4.948741 z M 113.536,121.536 c 0.29462,-0.29463 0.384,-9.82248 0.384,-40.937143 0,-36.439827 -0.051,-40.604148 -0.50286,-41.056 C 112.9686,39.094318 110.2206,39.04 87.977141,39.04 H 63.039999 v 41.44 41.44 h 25.055999 c 19.061332,0 25.147872,-0.0919 25.440002,-0.384 z m -37.452077,-8.27318 c -1.01828,-0.60472 -1.30578,-1.53971 -0.739291,-2.40428 l 0.51012,-0.77854 h 12.103027 c 11.318818,0 12.137341,0.0379 12.632621,0.5852 0.64999,0.71823 0.65704,1.2991 0.0259,2.1348 -0.46601,0.61705 -0.904639,0.64274 -12.229822,0.71653 -7.638559,0.0498 -11.940948,-0.039 -12.302555,-0.25371 z M 68.479998,104.64 c -0.770215,-0.77022 -0.800214,-1.22886 -0.141854,-2.1688 l 0.498145,-0.7112 h 19.163709 19.163712 l 0.49814,0.7112 c 0.65836,0.93994 0.62836,1.39858 -0.14185,2.1688 -0.62554,0.62554 -1.06667,0.64 -19.520002,0.64 -18.453333,0 -18.894463,-0.0145 -19.52,-0.64 z m 14.812325,-8.802828 c -2.818499,-0.612498 -6.69419,-2.731336 -8.970695,-4.904274 -6.557884,-6.259541 -8.152465,-15.390262 -4.139927,-23.705617 1.517955,-3.145723 5.680247,-7.251532 8.919534,-8.798494 7.946922,-3.795151 17.085003,-2.275904 23.129225,3.845337 2.29849,2.327782 3.68821,4.561475 4.85885,7.809637 0.75703,2.100505 0.86362,2.870155 0.86366,6.236239 5e-5,4.231684 -0.48485,6.184707 -2.46032,9.909287 -2.31883,4.371991 -7.958997,8.567876 -12.934303,9.622215 -2.664286,0.5646 -6.630211,0.558467 -9.266024,-0.01433 z m 10.627675,-4.0169 1.92,-0.782967 0.08858,-4.723652 c 0.05479,-2.921558 -0.04227,-4.968144 -0.254396,-5.364515 -0.330114,-0.616823 -0.621529,-0.637642 -7.768583,-0.555001 l -7.425604,0.08586 -0.08774,5.36 c -0.04826,2.948 -0.04826,5.360627 0,5.361394 0.04825,7.67e-4 1.095737,0.365338 2.327737,0.810158 1.987587,0.717628 2.636649,0.796533 5.76,0.700226 2.827091,-0.08717 3.89795,-0.262664 5.44,-0.891506 z M 77.618732,78.822266 c 0.362303,-0.496247 1.226303,-1.193484 1.92,-1.549417 l 1.261266,-0.647151 -0.710169,-1.752849 c -1.738116,-4.290042 0.01272,-8.951006 4.133758,-11.004604 2.197364,-1.094993 5.546643,-1.165115 7.46115,-0.156209 1.702027,0.896933 3.259787,2.40535 4.097763,3.967964 0.967568,1.804269 0.976687,5.858869 0.01722,7.655407 l -0.67047,1.255407 1.312793,0.664593 c 0.722036,0.365526 1.637954,1.153888 2.035375,1.751915 0.656227,0.987472 0.722583,1.464997 0.722583,5.2 0,2.261973 0.126699,4.112678 0.281553,4.112678 0.524249,0 3.050119,-3.661818 3.790869,-5.495717 1.49915,-3.711518 1.71486,-6.804057 0.74036,-10.614299 -0.74122,-2.898137 -1.75768,-4.736686 -3.93709,-7.121309 -4.869471,-5.327977 -12.787165,-6.789578 -19.394577,-3.580225 -2.891252,1.404339 -5.975136,4.501495 -7.467203,7.499336 -2.885971,5.798458 -1.938818,13.463497 2.235473,18.09104 l 1.190615,1.319895 0.16,-4.347095 c 0.137163,-3.72662 0.254023,-4.475877 0.818734,-5.24936 z m 13.408112,-3.110538 c 1.43337,-1.093285 2.093154,-2.362358 2.093154,-4.026115 0,-1.938449 -0.734123,-3.367054 -2.243542,-4.365941 -3.674655,-2.431771 -8.338063,0.372597 -7.916432,4.760594 0.382957,3.985515 4.923043,6.029338 8.06682,3.631462 z M 52.159999,109.12 v -2.56 h -3.04 -3.04 v 2.56 2.56 h 3.04 3.04 z m 0,-18.88 v -2.56 h -3.04 -3.04 v 2.56 2.56 h 3.04 3.04 z m 0,-19.2 v -2.56 h -3.04 -3.04 v 2.56 2.56 h 3.04 3.04 z m 0,-19.2 v -2.56 h -3.04 -3.04 v 2.56 2.56 h 3.04 3.04 z M 11.395671,118.6988 C 6.761417,114.3121 3.9323856,109.9386 2.715614,105.28 2.2862954,103.63629 2.2025751,102.2603 2.3164777,98.72 2.517605,92.468594 3.4222625,89.883257 7.7213743,83.273847 9.7220349,80.198051 10.056418,79.146347 9.5950256,77.380828 9.396553,76.621373 8.0774237,73.280622 6.6636272,69.956938 3.7942127,63.211252 3.1657647,60.663436 3.1025924,55.52 3.0556216,51.695672 3.6930447,49.492655 5.9767314,45.586603 7.8451966,42.390752 12.654803,37.340114 13.125097,38.08 c 0.406216,0.639075 0.385001,6.18568 -0.0306,8 -0.181421,0.792 -0.998225,2.88 -1.815122,4.64 -1.3742547,2.960825 -1.48556,3.39134 -1.4891908,5.76 -0.00485,3.166863 0.3975988,4.397791 3.8187908,11.68 2.868359,6.105469 3.351023,7.621573 3.351023,10.525951 0,3.029396 -0.564529,4.930143 -2.31165,7.783233 -4.715192,7.70002 -5.4436398,9.296293 -5.9703181,13.08297 -0.4988514,3.586606 -0.033805,5.909086 2.4809741,12.390156 2.50861,6.46518 3.372957,8.99239 3.151335,9.21401 -0.08517,0.0852 -1.396777,-1.0207 -2.91467,-2.45752 z M 156.48078,90.967191 c -1.1171,-3.616727 -1.68636,-7.656341 -1.44377,-10.245196 0.20465,-2.183919 0.26897,-2.334674 1.07036,-2.50878 2.52747,-0.549104 4.81124,-2.085315 5.61353,-3.776026 0.30202,-0.636454 0.66007,-1.157189 0.79567,-1.157189 0.52563,0 1.32343,3.511122 1.32343,5.824448 0,3.363391 -0.46055,5.494951 -1.74914,8.095552 -1.1275,2.275476 -3.259,5.026358 -4.345,5.607565 -0.53394,0.285756 -0.66914,0.08908 -1.26508,-1.840374 z M 2.1510713,88.863558 C 0.66127884,86.589847 -0.12237437,81.924751 0.07239847,76.489195 0.18116311,73.453883 0.38418332,72.016203 0.90817352,70.570683 1.5710347,68.742062 3.0213999,66.5662 3.7362822,66.327906 c 0.3699397,-0.123314 3.1708859,5.999102 4.4994685,9.835111 0.5159555,1.489715 0.756091,2.706551 0.6318279,3.201654 C 8.7573337,79.803922 7.8198119,81.484766 6.7841967,83.09988 5.7485816,84.714994 4.4824765,86.837908 3.97063,87.817465 3.4587835,88.797023 2.9485614,89.598821 2.8368031,89.599239 2.7250449,89.599658 2.4164655,89.268601 2.1510713,88.863558 Z M 155.52,75.891111 c 0,-2.368146 -1.44737,-4.929648 -4.57605,-8.098555 -2.76311,-2.798637 -4.6076,-5.328193 -5.63801,-7.732043 -1.47685,-3.445334 -2.83624,-10.192433 -2.42803,-12.051026 l 0.19849,-0.903703 1.26015,0.495002 c 1.67402,0.657575 3.70613,2.432404 4.43511,3.873597 0.32427,0.641089 0.98217,2.459162 1.46199,4.040163 1.52538,5.026123 2.33676,6.271973 7.08933,10.885454 4.74118,4.602425 4.93008,4.985925 3.67107,7.452748 -0.76403,1.496975 -1.43883,2.105712 -3.23981,2.922629 -2.08936,0.947726 -2.23424,0.890386 -2.23424,-0.884266 z m -1.19884,-13.716355 c -1.35688,-1.724148 -2.11333,-3.335735 -3.20179,-6.821236 -1.74798,-5.597491 -2.77048,-6.852414 -7.28135,-8.936439 -4.46859,-2.064496 -7.09021,-3.98078 -11.35802,-8.302212 -3.42213,-3.465119 -8.25392,-9.487614 -7.89766,-9.843878 0.18312,-0.183122 3.42437,1.00488 6.04462,2.21551 1.33918,0.61874 4.21196,2.267565 6.38395,3.664056 2.172,1.396492 5.24509,3.228812 6.82909,4.071823 5.87,3.124042 8.37767,5.444105 10.55279,9.763309 1.58496,3.147309 2.08786,5.193568 2.08221,8.472391 -0.004,2.550951 -0.58128,6.314867 -1.03785,6.771429 -0.088,0.088 -0.5902,-0.386637 -1.11599,-1.054753 z M 10.625484,56.228158 c 0.121502,-1.893264 0.423237,-2.931479 1.604268,-5.52 2.065386,-4.526804 2.224411,-5.573492 1.970176,-12.967546 -0.189434,-5.509408 -0.146598,-6.524296 0.33789,-8.005534 1.411189,-4.314462 6.377653,-8.975019 11.509528,-10.800603 1.866872,-0.664111 3.029703,-0.833471 6.512653,-0.948534 2.572028,-0.08497 4.24,-0.0201 4.24,0.1649 0,0.699034 -2.663508,3.949682 -4.075984,4.974488 -0.838209,0.608153 -2.964016,1.841683 -4.724016,2.741178 -5.755569,2.941537 -7.018013,4.536045 -7.009709,8.853493 0.0027,1.408 0.124311,3.861063 0.270229,5.45125 0.670397,7.305859 -2.592838,14.096758 -8.49829,17.685226 -2.053423,1.24777 -2.308831,1.053135 -2.136745,-1.628318 z M 142.88,36.678491 c -1.408,-0.758919 -4.24933,-2.465197 -6.31407,-3.791729 -4.60994,-2.961751 -8.46242,-4.679798 -13.86774,-6.184436 -8.44078,-2.349597 -10.36665,-3.055008 -12.76599,-4.67595 -2.84388,-1.921259 -6.76831,-5.19696 -7.20602,-6.01482 -0.29259,-0.546706 -0.14736,-0.643304 1.47278,-0.979644 2.63137,-0.546271 4.15863,-0.180471 8.69102,2.081625 4.29493,2.143584 6.28626,2.726463 9.31458,2.726463 2.57403,0 6.28205,1.015038 9.8058,2.684257 4.95961,2.349387 8.10929,4.875031 10.72568,8.600639 1.42346,2.026939 3.06316,5.892397 2.81033,6.625142 -0.0585,0.169568 -1.25837,-0.312628 -2.66637,-1.071547 z M 21.767027,35.001226 c 0.0133,-4.16436 1.275672,-5.675891 7.309424,-8.752082 4.650791,-2.371115 6.316609,-3.919618 9.053173,-8.415603 C 43.75219,8.5960533 51.348245,5.011975 63.039999,6.0799741 c 3.881909,0.3545983 4.799999,0.5313289 4.799999,0.9239904 0,0.13246 -0.507708,0.8339795 -1.128241,1.5589322 -1.734641,2.0265383 -3.845773,2.8916873 -8.440429,3.4589143 -8.006302,0.988408 -9.904158,2.34751 -16.056123,11.498189 -2.913957,4.334336 -7.029849,8.563995 -10.055206,10.33314 -2.520045,1.473652 -6.207847,2.796414 -8.72,3.127738 L 21.76,37.202451 Z M 52.799999,19.053747 c -0.264,-0.06384 -1.523532,-0.286045 -2.798961,-0.493787 -1.275428,-0.207741 -2.392451,-0.496621 -2.482272,-0.641955 -0.270684,-0.437976 2.432385,-2.576601 4.481233,-3.545481 1.321854,-0.625091 2.867064,-1.021298 4.96,-1.271791 7.271824,-0.870331 8.67376,-1.563097 11.884134,-5.8725422 1.168275,-1.5682325 2.464275,-3.1210229 2.88,-3.4506453 C 72.86385,2.8738818 74.778984,1.92 75.453577,1.92 c 0.526483,0 0.582738,0.2035748 0.464245,1.68 -0.172817,2.153323 0.711461,3.5596507 3.020679,4.8039871 3.259193,1.7562369 8.341256,1.7775819 18.484758,0.077637 10.676661,-1.789297 16.905731,-0.4252561 22.678871,4.9662146 2.22389,2.076875 4.37787,4.796911 4.37787,5.528371 0,0.338569 -3.7085,0.06216 -6.08,-0.453163 -0.792,-0.172101 -2.448,-0.835697 -3.68,-1.474657 -4.50869,-2.338373 -5.35292,-2.698485 -6.89929,-2.942932 -2.05967,-0.325591 -4.2317,0.03679 -8.321524,1.388369 -4.54157,1.500867 -7.112704,1.898806 -10.980797,1.69952 -3.987435,-0.205435 -5.4954,-0.7252 -9.242574,-3.185725 -2.679422,-1.759403 -3.033298,-1.904088 -4.306172,-1.760617 -0.95481,0.107621 -2.206584,0.685063 -4.018244,1.853611 -3.863589,2.492073 -6.23233,3.701888 -8.3914,4.285839 -1.75368,0.474306 -8.617463,0.943584 -9.76,0.667292 z M 81.980862,8.6183588 C 78.953089,8.0222621 76.671998,6.0407498 76.671998,4.0067138 76.671998,1.6049394 78.853848,0.64 84.284561,0.64 c 3.389283,0 6.879119,0.7684857 9.524753,2.097416 2.249288,1.1298412 6.140112,4.0096003 5.810042,4.3002519 -0.320304,0.2820527 -5.666445,1.1803544 -9.539358,1.6028799 -3.361783,0.3667624 -6.162496,0.3590894 -8.099136,-0.022189 z"
       id="path1" />
  </g>
</svg>
