<?xml version="1.0" encoding="UTF-8" standalone="no"?>
<!-- Created with Inkscape (http://www.inkscape.org/) -->

<svg
   version="1.1"
   id="svg1"
   width="163.84"
   height="160.64"
   viewBox="0 0 163.84 160.64"
   xmlns="http://www.w3.org/2000/svg"
   xmlns:svg="http://www.w3.org/2000/svg">
  <defs
     id="defs1" />
  <g
     id="g1">
    <path
       style="fill:#000000"
       d="m 70.399998,159.72642 c 0,-0.51693 3.443981,-3.53014 5.640981,-4.93541 1.209461,-0.7736 3.423019,-2.00385 4.919019,-2.73387 1.50017,-0.73206 4.06538,-2.40947 5.719951,-3.74032 7.977455,-6.41662 13.932271,-7.95015 23.400051,-6.02613 3.39989,0.69091 3.49252,0.78385 1.97737,1.98387 -1.9404,1.53682 -4.45702,2.55904 -7.94619,3.22763 -5.436246,1.04168 -9.03252,2.60141 -12.591182,5.46087 C 84.849072,158.32329 80.621364,160 73.776829,160 c -1.857257,0 -3.376831,-0.12311 -3.376831,-0.27358 z m -3.174687,-0.8922 c -2.973283,-1.04085 -5.68394,-3.47247 -7.19495,-6.4543 l -0.809677,-1.59782 2.149657,-0.36222 c 1.182312,-0.19922 3.949658,-0.81023 6.149657,-1.3578 4.567903,-1.13692 8.375257,-1.32982 10.24,-0.5188 1.118535,0.48648 2.88,2.03105 2.88,2.52538 0,0.14377 -0.67123,0.55831 -1.491622,0.92121 -2.282625,1.00971 -6.486014,3.93496 -8.256348,5.74582 -0.873384,0.89337 -1.737384,1.61744 -1.92,1.60903 -0.182616,-0.008 -0.968639,-0.23813 -1.746717,-0.5105 z m 27.896715,-3.95894 c -3.037777,-0.44333 -3.397565,-0.58966 -2.910268,-1.18367 0.721138,-0.87906 3.979572,-2.85204 6.135825,-3.71525 1.123951,-0.44995 3.826197,-1.18676 6.004997,-1.63735 5.79662,-1.1988 6.62176,-1.69708 12.76742,-7.70988 2.904,-2.84122 6.5,-6.06758 7.99112,-7.16968 3.18561,-2.35453 7.68888,-4.73653 7.68888,-4.06703 0,0.86012 -1.92275,5.08305 -3.48995,7.66495 -4.2339,6.97523 -10.57628,13.09103 -16.14615,15.56934 -4.87823,2.17056 -12.26665,3.09139 -18.041874,2.24857 z m -14.802028,-5.48019 c -0.616,-0.69324 -1.696,-1.46441 -2.4,-1.71372 -2.179092,-0.77167 -5.982335,-0.59565 -10.25948,0.47482 -6.651533,1.66474 -10.236377,2.05821 -14.89506,1.63486 -4.245044,-0.38576 -7.781095,-1.20522 -9.998182,-2.31702 -3.285917,-1.64779 -9.7899,-7.35459 -10.959369,-9.61609 -0.42436,-0.82062 -0.43334,-0.96082 -0.05217,-0.81456 0.253227,0.0972 2.086238,0.62795 4.073357,1.17949 4.700786,1.30476 5.439903,1.63117 8.012937,3.53863 1.185642,0.87896 2.816113,1.89023 3.623268,2.24727 2.974154,1.31561 7.614289,1.14111 17.494702,-0.65791 4.947418,-0.90082 10.145082,-0.90872 13.599999,-0.0207 2.711831,0.69705 8.023213,3.17055 7.966123,3.70982 -0.04308,0.40697 -4.331179,3.69089 -4.763194,3.64776 -0.177611,-0.0177 -0.826929,-0.59943 -1.442929,-1.29267 z M 125.44,144.22975 c 0,-0.0946 1.01111,-1.51703 2.24692,-3.1609 2.92573,-3.8918 4.67674,-7.3386 6.70618,-13.20081 2.05376,-5.93246 3.79235,-9.43034 5.5717,-11.20968 0.75537,-0.75537 2.7283,-2.28281 4.3843,-3.3943 1.65599,-1.11149 3.8601,-2.82261 4.89802,-3.80248 l 1.88713,-1.78158 -0.19201,1.67968 c -0.27464,2.40251 -1.09158,3.99747 -3.7771,7.37432 -3.05368,3.83978 -4.56626,6.339 -5.43429,8.97905 -0.96147,2.92423 -3.22856,7.73241 -4.94248,10.48227 -1.66197,2.66653 -4.94357,5.86715 -7.1749,6.99785 -1.4665,0.74313 -4.17347,1.41547 -4.17347,1.03658 z M 48.446878,143.4146 c -0.898216,-0.31048 -2.626216,-1.29563 -3.84,-2.18923 -2.991917,-2.20265 -3.477812,-2.42084 -8.751906,-3.92996 -6.075346,-1.73839 -8.293257,-2.64595 -11.434357,-4.6789 -3.328641,-2.15432 -6.052053,-4.88083 -7.38468,-7.39309 -0.574235,-1.08254 -1.701646,-3.88867 -2.505358,-6.23584 C 13.726866,116.64041 12.415221,113.136 11.61581,111.2 10.816399,109.264 9.9655197,106.96 9.7249661,106.08 9.1907577,104.12574 9.188027,99.502259 9.7200521,97.76 l 0.3908669,-1.28 1.672329,2.24 c 2.051547,2.74794 5.683468,10.03554 7.256273,14.56 2.43382,7.00133 5.225896,11.50909 8.640478,13.94991 2.352785,1.68182 3.99573,2.45116 8.8,4.12075 4.74078,1.64753 7.852892,3.20917 11.528752,5.78505 2.489247,1.74436 6.996848,5.62801 7.447149,6.41631 0.397796,0.69638 -4.897171,0.59257 -7.009022,-0.13742 z m 32.99312,-13.04548 c -1.408,-0.61714 -2.843688,-1.40234 -3.190418,-1.7449 -0.565425,-0.55862 -0.58727,-0.73012 -0.211898,-1.66353 0.230186,-0.57238 0.528441,-1.4809 0.66279,-2.01893 0.355106,-1.42212 -0.808563,-23.9754 -1.575846,-30.54176 -0.816633,-6.988693 -0.815427,-7.065732 0.155372,-9.92 1.034967,-3.042929 1.024226,-4.594099 -0.0456,-6.585767 -0.465081,-0.865828 -1.241747,-2.349418 -1.725925,-3.296866 -0.766797,-1.500482 -0.920466,-1.644917 -1.191601,-1.12 -0.812268,1.572548 -1.623892,4.684481 -1.826358,7.002633 -0.633093,7.248662 -1.480456,13.438034 -1.934651,14.131223 -0.589267,0.899334 -1.8861,1.048932 -1.636474,0.188777 0.836589,-2.882704 0.902292,-3.726839 0.69137,-8.882532 -0.220871,-5.398907 -0.213374,-5.488679 0.935316,-11.2 0.947779,-4.712386 2.381522,-10.192872 3.27709,-12.526685 0.118267,-0.308199 -0.140377,-0.431124 -0.908929,-0.431979 -3.85243,-0.0043 -4.936912,-4.512741 -1.874997,-7.794813 1.106996,-1.186592 1.383827,-1.320882 2.667555,-1.294026 0.981154,0.02052 2.349206,0.465665 4.342791,1.413065 2.440941,1.159995 2.910414,1.503587 2.910414,2.130035 0,0.807877 0.671999,1.0001 1.212859,0.346935 0.635301,-0.767217 2.294109,-5.352711 3.119817,-8.624209 C 85.750186,46.123106 86.653954,43.488 87.301049,42.08 l 1.176535,-2.56 0.108739,-5.2 c 0.08732,-4.175505 0.196431,-5.2 0.55383,-5.2 0.709544,0 1.310981,1.234185 2.068541,4.244768 l 0.70577,2.804768 -0.66545,1.835232 C 90.883017,39.014146 90.20564,41.64 89.743731,43.84 c -0.461909,2.2 -1.052005,4.648 -1.311324,5.44 -0.259319,0.792 -0.810062,2.754891 -1.223873,4.36198 -0.41381,1.607089 -1.136206,3.839089 -1.605324,4.96 -1.401936,3.349786 -1.455919,3.880319 -0.956273,9.39802 0.629108,6.947387 0.611524,27.104809 -0.0279,31.979654 -0.252472,1.924806 -0.459041,4.688916 -0.459041,6.142446 0,1.45354 -0.301728,4.63069 -0.670507,7.06035 -0.368779,2.42965 -0.690962,6.14555 -0.715963,8.25755 -0.05172,4.36884 0.1497,4.97243 2.332516,6.98989 1.023345,0.94583 1.307974,1.42625 1.232325,2.08 -0.149134,1.2888 -1.741164,1.24305 -4.898371,-0.14077 z m -46.042785,-0.3244 c -3.91218,-1.33473 -6.946946,-3.03445 -8.893725,-4.98123 C 24.125865,122.68587 21.006493,117.44 21.9703,117.44 c 0.619579,0 10.68202,7.01155 12.087685,8.42274 1.581727,1.58796 3.884617,4.63792 3.652859,4.83787 -0.06096,0.0526 -1.102099,-0.24255 -2.313631,-0.65589 z M 142.15915,127.28 c 0.0812,-0.22 0.39315,-1.14691 0.69324,-2.0598 0.66119,-2.01135 2.38818,-4.73397 5.21147,-8.21593 1.1614,-1.43235 2.48615,-3.39627 2.94389,-4.36427 0.75284,-1.59207 0.82979,-2.11112 0.80646,-5.44 -0.0248,-3.53829 -0.089,-3.87101 -1.66752,-8.64 -3.44757,-10.415856 -3.82205,-17.695071 -1.30876,-25.44 0.51402,-1.584 1.1239,-3.217209 1.35529,-3.629352 l 0.42071,-0.749352 1.36587,1.549352 c 2.47837,2.811297 2.70412,3.540785 2.40775,7.780338 -0.45133,6.456228 -0.29911,7.682554 1.94744,15.689014 1.71839,6.124172 1.94018,7.11919 2.38204,10.68676 0.58042,4.68626 -0.29214,8.74411 -2.68439,12.4838 -1.44056,2.25195 -4.61533,5.6096 -7.03077,7.43576 -3.08656,2.33356 -7.28904,4.12301 -6.84272,2.91368 z M 11.395671,118.6988 C 6.761417,114.3121 3.9323856,109.9386 2.715614,105.28 2.2862954,103.63629 2.2025751,102.2603 2.3164777,98.72 2.517605,92.468594 3.4222625,89.883257 7.7213743,83.273847 9.7220349,80.198051 10.056418,79.146347 9.5950256,77.380828 9.396553,76.621373 8.0774237,73.280622 6.6636272,69.956938 3.7942127,63.211252 3.1657647,60.663436 3.1025924,55.52 3.0556216,51.695672 3.6930447,49.492655 5.9767314,45.586603 7.8451966,42.390752 12.654803,37.340114 13.125097,38.08 c 0.406216,0.639075 0.385001,6.18568 -0.0306,8 -0.181421,0.792 -0.998225,2.88 -1.815122,4.64 -1.3742547,2.960825 -1.48556,3.39134 -1.4891908,5.76 -0.00485,3.166863 0.3975988,4.397791 3.8187908,11.68 2.868359,6.105469 3.351023,7.621573 3.351023,10.525951 0,3.029396 -0.564529,4.930143 -2.31165,7.783233 -4.715192,7.70002 -5.4436398,9.296293 -5.9703181,13.08297 -0.4988514,3.586606 -0.033805,5.909086 2.4809741,12.390156 2.50861,6.46518 3.372957,8.99239 3.151335,9.21401 -0.08517,0.0852 -1.396777,-1.0207 -2.91467,-2.45752 z M 156.48078,90.967191 c -1.1171,-3.616727 -1.68636,-7.656341 -1.44377,-10.245196 0.20465,-2.183919 0.26897,-2.334674 1.07036,-2.50878 2.52747,-0.549104 4.81124,-2.085315 5.61353,-3.776026 0.30202,-0.636454 0.66007,-1.157189 0.79567,-1.157189 0.52563,0 1.32343,3.511122 1.32343,5.824448 0,3.363391 -0.46055,5.494951 -1.74914,8.095552 -1.1275,2.275476 -3.259,5.026358 -4.345,5.607565 -0.53394,0.285756 -0.66914,0.08908 -1.26508,-1.840374 z M 2.1510713,88.863558 C 0.66127884,86.589847 -0.12237437,81.924751 0.07239847,76.489195 0.18116311,73.453883 0.38418332,72.016203 0.90817352,70.570683 1.5710347,68.742062 3.0213999,66.5662 3.7362822,66.327906 c 0.3699397,-0.123314 3.1708859,5.999102 4.4994685,9.835111 0.5159555,1.489715 0.756091,2.706551 0.6318279,3.201654 C 8.7573337,79.803922 7.8198119,81.484766 6.7841967,83.09988 5.7485816,84.714994 4.4824765,86.837908 3.97063,87.817465 3.4587835,88.797023 2.9485614,89.598821 2.8368031,89.599239 2.7250449,89.599658 2.4164655,89.268601 2.1510713,88.863558 Z M 155.52,75.891111 c 0,-2.368146 -1.44737,-4.929648 -4.57605,-8.098555 -2.76311,-2.798637 -4.6076,-5.328193 -5.63801,-7.732043 -1.47685,-3.445334 -2.83624,-10.192433 -2.42803,-12.051026 l 0.19849,-0.903703 1.26015,0.495002 c 1.67402,0.657575 3.70613,2.432404 4.43511,3.873597 0.32427,0.641089 0.98217,2.459162 1.46199,4.040163 1.52538,5.026123 2.33676,6.271973 7.08933,10.885454 4.74118,4.602425 4.93008,4.985925 3.67107,7.452748 -0.76403,1.496975 -1.43883,2.105712 -3.23981,2.922629 -2.08936,0.947726 -2.23424,0.890386 -2.23424,-0.884266 z m -1.19884,-13.716355 c -1.35688,-1.724148 -2.11333,-3.335735 -3.20179,-6.821236 -1.74798,-5.597491 -2.77048,-6.852414 -7.28135,-8.936439 -4.46859,-2.064496 -7.09021,-3.98078 -11.35802,-8.302212 -3.42213,-3.465119 -8.25392,-9.487614 -7.89766,-9.843878 0.18312,-0.183122 3.42437,1.00488 6.04462,2.21551 1.33918,0.61874 4.21196,2.267565 6.38395,3.664056 2.172,1.396492 5.24509,3.228812 6.82909,4.071823 5.87,3.124042 8.37767,5.444105 10.55279,9.763309 1.58496,3.147309 2.08786,5.193568 2.08221,8.472391 -0.004,2.550951 -0.58128,6.314867 -1.03785,6.771429 -0.088,0.088 -0.5902,-0.386637 -1.11599,-1.054753 z M 10.625484,56.228158 c 0.121502,-1.893264 0.423237,-2.931479 1.604268,-5.52 2.065386,-4.526804 2.224411,-5.573492 1.970176,-12.967546 -0.189434,-5.509408 -0.146598,-6.524296 0.33789,-8.005534 1.411189,-4.314462 6.377653,-8.975019 11.509528,-10.800603 1.866872,-0.664111 3.029703,-0.833471 6.512653,-0.948534 2.572028,-0.08497 4.24,-0.0201 4.24,0.1649 0,0.699034 -2.663508,3.949682 -4.075984,4.974488 -0.838209,0.608153 -2.964016,1.841683 -4.724016,2.741178 -5.755569,2.941537 -7.018013,4.536045 -7.009709,8.853493 0.0027,1.408 0.124311,3.861063 0.270229,5.45125 0.670397,7.305859 -2.592838,14.096758 -8.49829,17.685226 -2.053423,1.24777 -2.308831,1.053135 -2.136745,-1.628318 z M 142.88,36.678491 c -1.408,-0.758919 -4.24933,-2.465197 -6.31407,-3.791729 -4.60994,-2.961751 -8.46242,-4.679798 -13.86774,-6.184436 -8.44078,-2.349597 -10.36665,-3.055008 -12.76599,-4.67595 -2.84388,-1.921259 -6.76831,-5.19696 -7.20602,-6.01482 -0.29259,-0.546706 -0.14736,-0.643304 1.47278,-0.979644 2.63137,-0.546271 4.15863,-0.180471 8.69102,2.081625 4.29493,2.143584 6.28626,2.726463 9.31458,2.726463 2.57403,0 6.28205,1.015038 9.8058,2.684257 4.95961,2.349387 8.10929,4.875031 10.72568,8.600639 1.42346,2.026939 3.06316,5.892397 2.81033,6.625142 -0.0585,0.169568 -1.25837,-0.312628 -2.66637,-1.071547 z M 21.767027,35.001226 c 0.0133,-4.16436 1.275672,-5.675891 7.309424,-8.752082 4.650791,-2.371115 6.316609,-3.919618 9.053173,-8.415603 C 43.75219,8.5960533 51.348245,5.011975 63.039999,6.0799741 c 3.881909,0.3545983 4.799999,0.5313289 4.799999,0.9239904 0,0.13246 -0.507708,0.8339795 -1.128241,1.5589322 -1.734641,2.0265383 -3.845773,2.8916873 -8.440429,3.4589143 -8.006302,0.988408 -9.904158,2.34751 -16.056123,11.498189 -2.913957,4.334336 -7.029849,8.563995 -10.055206,10.33314 -2.520045,1.473652 -6.207847,2.796414 -8.72,3.127738 L 21.76,37.202451 Z M 52.799999,19.053747 c -0.264,-0.06384 -1.523532,-0.286045 -2.798961,-0.493787 -1.275428,-0.207741 -2.392451,-0.496621 -2.482272,-0.641955 -0.270684,-0.437976 2.432385,-2.576601 4.481233,-3.545481 1.321854,-0.625091 2.867064,-1.021298 4.96,-1.271791 7.271824,-0.870331 8.67376,-1.563097 11.884134,-5.8725422 1.168275,-1.5682325 2.464275,-3.1210229 2.88,-3.4506453 C 72.86385,2.8738818 74.778984,1.92 75.453577,1.92 c 0.526483,0 0.582738,0.2035748 0.464245,1.68 -0.172817,2.153323 0.711461,3.5596507 3.020679,4.8039871 3.259193,1.7562369 8.341256,1.7775819 18.484758,0.077637 10.676661,-1.789297 16.905731,-0.4252561 22.678871,4.9662146 2.22389,2.076875 4.37787,4.796911 4.37787,5.528371 0,0.338569 -3.7085,0.06216 -6.08,-0.453163 -0.792,-0.172101 -2.448,-0.835697 -3.68,-1.474657 -4.50869,-2.338373 -5.35292,-2.698485 -6.89929,-2.942932 -2.05967,-0.325591 -4.2317,0.03679 -8.321524,1.388369 -4.54157,1.500867 -7.112704,1.898806 -10.980797,1.69952 -3.987435,-0.205435 -5.4954,-0.7252 -9.242574,-3.185725 -2.679422,-1.759403 -3.033298,-1.904088 -4.306172,-1.760617 -0.95481,0.107621 -2.206584,0.685063 -4.018244,1.853611 -3.863589,2.492073 -6.23233,3.701888 -8.3914,4.285839 -1.75368,0.474306 -8.617463,0.943584 -9.76,0.667292 z M 81.980862,8.6183588 C 78.953089,8.0222621 76.671998,6.0407498 76.671998,4.0067138 76.671998,1.6049394 78.853848,0.64 84.284561,0.64 c 3.389283,0 6.879119,0.7684857 9.524753,2.097416 2.249288,1.1298412 6.140112,4.0096003 5.810042,4.3002519 -0.320304,0.2820527 -5.666445,1.1803544 -9.539358,1.6028799 -3.361783,0.3667624 -6.162496,0.3590894 -8.099136,-0.022189 z"
       id="path1" />
  </g>
</svg>
